<svg width="32" height="32" viewBox="0 0 32 32" fill="none" xmlns="http://www.w3.org/2000/svg">
  <!-- 꽃잎들 -->
  <ellipse cx="16" cy="8" rx="4" ry="6" fill="#FFE5B4" transform="rotate(0 16 16)"/>
  <ellipse cx="16" cy="8" rx="4" ry="6" fill="#A0E7E5" transform="rotate(72 16 16)"/>
  <ellipse cx="16" cy="8" rx="4" ry="6" fill="#FFE5B4" transform="rotate(144 16 16)"/>
  <ellipse cx="16" cy="8" rx="4" ry="6" fill="#A0E7E5" transform="rotate(216 16 16)"/>
  <ellipse cx="16" cy="8" rx="4" ry="6" fill="#FFE5B4" transform="rotate(288 16 16)"/>
  
  <!-- 중앙 원 -->
  <circle cx="16" cy="16" r="5" fill="#333333"/>
  
  <!-- 중앙 하트 -->
  <path d="M16 20c-1.5-1.5-4-3-4-5 0-1.5 1-2.5 2.5-2.5 0.5 0 1.5 0.5 1.5 0.5s1-0.5 1.5-0.5c1.5 0 2.5 1 2.5 2.5 0 2-2.5 3.5-4 5z" fill="#FFE5B4"/>
</svg> 